PathFileType	4	(X/Y/Z)	C:\Users\Basilio\Documents\Thesis Gigler\squatting_fais\c3dfiles\054\SJ_pre3\markers_experimental.trc
DataRate	CameraRate	NumFrames	NumMarkers	Units	OrigDataRate	OrigDataStartFrame	OrigNumFrames
200.000000	200.000000	4	61	mm	200.000000	0	1794
Frame#	Time	FHD			LBHD			RBHD			C7			T10			CLAV			LSHO			LUUPA			LMUPA			LDUPA			LLEP			LMEP			LRAD			LUL			LRFIN			RSHO			RUPA1			RMUPA			RDUPA			RLEP			RMEP			RRAD			RUL			RUFIN			LASI			RASI			USACR			LSACR			RSACR			LTHI1			LTHI2			LTHI3			LTHI4			LLFC			LMFC			LTIB1			LTIB2			LTIB3			LTIB4			LLMAL			LMMAL			LHEE			LMT1			LMT2			LMT5			RTHI			RTHI2			RTHI3			RTHI4			RLFC			RMFC			RTIB1			RTIB2			RTIB3			RTIB4			RLMAL			RMMAL			RHEE			RMT1			RMT2			RMT5			
		X1	Y1	Z1	X2	Y2	Z2	X3	Y3	Z3	X4	Y4	Z4	X5	Y5	Z5	X6	Y6	Z6	X7	Y7	Z7	X8	Y8	Z8	X9	Y9	Z9	X10	Y10	Z10	X11	Y11	Z11	X12	Y12	Z12	X13	Y13	Z13	X14	Y14	Z14	X15	Y15	Z15	X16	Y16	Z16	X17	Y17	Z17	X18	Y18	Z18	X19	Y19	Z19	X20	Y20	Z20	X21	Y21	Z21	X22	Y22	Z22	X23	Y23	Z23	X24	Y24	Z24	X25	Y25	Z25	X26	Y26	Z26	X27	Y27	Z27	X28	Y28	Z28	X29	Y29	Z29	X30	Y30	Z30	X31	Y31	Z31	X32	Y32	Z32	X33	Y33	Z33	X34	Y34	Z34	X35	Y35	Z35	X36	Y36	Z36	X37	Y37	Z37	X38	Y38	Z38	X39	Y39	Z39	X40	Y40	Z40	X41	Y41	Z41	X42	Y42	Z42	X43	Y43	Z43	X44	Y44	Z44	X45	Y45	Z45	X46	Y46	Z46	X47	Y47	Z47	X48	Y48	Z48	X49	Y49	Z49	X50	Y50	Z50	X51	Y51	Z51	X52	Y52	Z52	X53	Y53	Z53	X54	Y54	Z54	X55	Y55	Z55	X56	Y56	Z56	X57	Y57	Z57	X58	Y58	Z58	X59	Y59	Z59	X60	Y60	Z60	X61	Y61	Z61	

1	0	-246.4010620117188	1755.5986328125	-895.0599365234377	-385.8419799804689	1659.192138671875	-966.6007080078127	-404.3956604003907	1654.953125	-827.8427734375002	-408.8665466308595	1518.177856445313	-880.4343872070315	-442.8835449218751	1178.073364257813	-883.4483642578127	-268.1931457519532	1454.29736328125	-889.137145996094	-337.2363281250001	1515.938842773438	-1043.03759765625	-451.7420959472657	1406.372192382813	-1206.389282226563	-414.5610351562501	1374.679809570313	-1223.133544921875	-463.3750305175782	1357.779174804688	-1255.468994140625	-457.7382812500001	1294.5673828125	-1282.94189453125	-526.3339233398439	1270.27978515625	-1229.843505859375	-396.1562805175782	1093.3095703125	-1124.497436523438	-355.0975646972657	1056.139282226563	-1179.62890625	-335.6799621582032	1098.3369140625	-1089.571166992188	-315.7147216796876	1516.534423828125	-725.9502563476564	-410.4442749023439	1398.568725585938	-550.6026611328126	-382.4916381835938	1359.386352539063	-540.4273071289064	-431.9394836425782	1346.873901367188	-507.3875732421876	-438.9760742187501	1297.745361328125	-485.5297241210939	-506.6494445800782	1282.933227539063	-539.7683105468751	-399.8533325195314	1079.210571289063	-651.0477905273439	-335.7874755859376	1097.563720703125	-674.3369750976564	-356.3049316406251	1054.312133789063	-587.5203857421876	-235.7632293701172	1023.763427734375	-1016.315002441406	-227.7858123779297	1025.736694335938	-756.2966308593751	-428.4365539550782	1087.598266601563	-879.9227294921877	-428.7255859375001	1053.484619140625	-906.4786376953127	-425.8536682128907	1053.216064453125	-851.477722167969	-362.8887023925782	803.7443847656252	-1108.944946289063	-337.8961181640626	724.2107543945314	-1130.655395507813	-291.5779113769532	725.9390869140626	-1137.330688476563	-367.1595764160157	671.2797851562501	-1116.804077148438	-373.7702636718751	514.8542480468751	-1124.258544921875	-300.8081665039063	480.217254638672	-1014.513977050781	-328.3623046875001	346.7481384277344	-1134.93994140625	-397.0248413085939	313.9761657714844	-1180.467407226563	-353.4837341308594	306.6831970214844	-1171.877197265625	-349.1365356445313	223.3642120361329	-1158.045166015625	-420.7605895996095	89.97547149658205	-1208.813110351563	-362.0859375000001	99.41310119628909	-1130.358154296875	-467.9036865234376	51.80985641479494	-1140.217651367188	-251.2269744873047	55.38904571533205	-1187.700439453125	-258.8818359375001	58.01774215698244	-1236.65673828125	-320.6024169921876	35.7838249206543	-1274.625732421875	-356.4797058105469	733.4785156250001	-674.0463256835939	-327.1901245117188	675.2227172851564	-661.8912353515626	-294.6817321777344	672.8129882812501	-660.5120239257814	-361.3108520507813	600.3090820312501	-678.6295776367189	-383.4889221191407	506.9093017578126	-675.8425292968751	-301.3638000488282	488.623504638672	-785.2446899414065	-338.4411621093751	397.9237670898439	-650.4373168945314	-420.1273498535157	332.7422180175782	-629.1094970703126	-374.6819152832032	323.0331726074219	-623.0381469726564	-356.8176574707032	269.3022460937501	-633.6480712890626	-425.5290832519532	92.43773651123048	-603.2413330078126	-365.2033386230469	100.931884765625	-676.7128906250001	-468.4548339843751	48.60079193115236	-671.2822875976564	-248.0958404541016	52.79540634155275	-616.5911254882814	-261.1829223632813	55.83762359619142	-570.8236083984376	-320.0575561523438	33.20087432861329	-536.3290405273439	
2	0.005	-246.5486145019532	1755.597900390625	-894.9553222656252	-385.7517089843751	1659.07421875	-966.6572265625002	-404.4623107910157	1654.786376953125	-827.8430175781252	-408.8352050781251	1518.154663085938	-880.4653320312502	-442.718719482422	1177.937377929688	-883.4304809570315	-268.1598205566407	1454.274780273438	-889.0969848632815	-337.1648559570313	1515.812622070313	-1043.065307617188	-451.7903747558595	1406.139770507813	-1206.304321289063	-414.5324096679689	1374.4111328125	-1223.001831054688	-463.315643310547	1357.473510742188	-1255.340576171875	-457.6861267089845	1294.2998046875	-1282.742431640625	-526.2719726562501	1269.998413085938	-1229.510864257813	-395.9840087890626	1093.2421875	-1124.156982421875	-354.8714294433594	1056.009521484375	-1179.346801757813	-335.9170227050782	1098.425170898438	-1089.259521484375	-315.6347656250001	1516.643920898438	-726.0093383789064	-410.8752746582032	1399.254272460938	-550.5899658203126	-382.9151306152344	1360.027221679688	-540.1470947265626	-432.2846069335939	1347.562622070313	-507.3264160156251	-439.2433166503907	1298.604736328125	-485.3906555175782	-506.9425659179689	1283.637939453125	-539.6748046875001	-402.3265991210939	1079.487548828125	-649.5574340820314	-336.6134033203126	1097.400390625	-673.1250000000001	-357.1535034179688	1054.582275390625	-586.4664916992189	-235.339828491211	1023.740051269531	-1016.165466308594	-227.6160125732422	1025.75244140625	-756.0787353515626	-428.228240966797	1087.524780273438	-879.823181152344	-428.4817810058595	1053.38134765625	-906.440856933594	-425.6514587402345	1053.072265625	-851.3879394531252	-362.4586486816407	803.7593994140627	-1109.009155273438	-337.9674072265626	724.2237548828126	-1130.50732421875	-291.2858581542969	725.9369506835939	-1137.308715820313	-366.9493103027344	671.3095092773439	-1116.772338867188	-373.3556518554688	514.8214721679689	-1124.365600585938	-300.6741943359376	480.2140197753907	-1014.539672851563	-327.8648376464844	346.7535705566407	-1135.059326171875	-396.8009033203126	313.9432678222657	-1180.556518554688	-353.3158569335938	306.6544799804688	-1171.917846679688	-348.8444824218751	223.3875732421876	-1158.060302734375	-420.7987060546876	89.9890823364258	-1208.835571289063	-362.0593566894532	99.4465026855469	-1130.357666015625	-467.9071655273439	51.82891845703126	-1140.198974609375	-251.1796264648438	55.39778137207033	-1187.741821289063	-258.6139221191407	58.26654052734376	-1236.55224609375	-320.6117553710938	35.76076126098634	-1274.6171875	-356.3085937500001	733.4790039062501	-674.0132446289064	-327.0369262695313	675.2317504882814	-661.8950195312501	-294.4497070312501	672.7787475585939	-660.5976562500001	-361.2878417968751	600.2853393554689	-678.6023559570314	-383.6152648925782	506.9555053710939	-675.8460083007814	-301.4574584960938	488.6936950683595	-785.324645996094	-338.6417236328126	397.9857177734376	-650.4186401367189	-420.2771606445314	332.7999267578126	-629.0883789062501	-374.8125610351563	323.0235900878907	-623.0187988281251	-356.9273986816407	269.3488159179688	-633.6060180664064	-425.5485839843751	92.44622802734376	-603.1842041015626	-365.2301025390626	100.9657592773438	-676.6889648437501	-468.4039611816407	48.63594436645509	-671.2729492187501	-248.1398620605469	52.80357360839845	-616.5441284179689	-261.2037963867188	55.82743453979494	-570.7753906250001	-320.0569458007813	33.17585754394532	-536.3050537109376	
3	0.01	-246.6108551025391	1755.539428710938	-894.8402099609377	-385.7781982421876	1658.983032226563	-966.6585693359377	-404.663787841797	1654.60205078125	-827.8641357421877	-408.8373107910157	1518.0771484375	-880.4549560546877	-442.543182373047	1177.805908203125	-883.3721923828127	-268.1501464843751	1454.243408203125	-889.0877685546877	-337.0850830078126	1515.610107421875	-1043.068359375	-451.7073669433595	1405.886352539063	-1206.2041015625	-414.4944763183595	1374.176391601563	-1222.88134765625	-463.3344116210939	1357.160522460938	-1255.217407226563	-457.6268310546876	1294.000122070313	-1282.593627929688	-525.8952636718751	1269.727905273438	-1229.484619140625	-394.7286987304689	1093.120849609375	-1124.0458984375	-354.6613769531251	1055.901489257813	-1179.0361328125	-335.6523437500001	1098.452758789063	-1089.013549804688	-315.6115417480469	1516.715576171875	-726.0517578125001	-411.1872558593751	1399.736328125	-550.6287841796876	-383.1280212402344	1360.857421875	-539.9713134765626	-432.7422790527345	1348.382934570313	-507.2053527832032	-439.7446289062501	1299.403198242188	-485.1488037109376	-507.3474121093751	1284.441284179688	-539.5001220703126	-401.5790405273439	1079.670043945313	-649.6216430664064	-336.9760131835938	1097.335815429688	-672.3024291992189	-358.2326660156251	1054.768310546875	-585.4499511718751	-234.9683990478516	1023.766784667969	-1016.021057128906	-227.4638671875001	1025.725708007813	-755.8385009765626	-427.9945678710939	1087.441528320313	-879.7755126953127	-428.306121826172	1053.271728515625	-906.3530273437502	-425.3805236816407	1052.994018554688	-851.2908325195315	-362.0390319824219	803.7775878906252	-1109.051025390625	-337.5498352050782	724.2402954101564	-1130.553466796875	-291.0178527832032	725.9527587890626	-1137.308959960938	-366.4343261718751	671.2967529296876	-1116.899536132813	-372.9534606933594	514.8670043945314	-1124.420166015625	-300.5429992675782	480.1763916015626	-1014.560913085938	-327.7634582519532	346.7217407226563	-1135.07861328125	-396.5790100097657	313.9390258789063	-1180.62109375	-353.0670471191407	306.6184997558594	-1171.963012695313	-348.8025817871094	223.3181152343751	-1158.110961914063	-420.7733459472657	89.99502563476564	-1208.848510742188	-362.0454406738282	99.45655822753909	-1130.359741210938	-467.8835754394532	51.85877227783205	-1140.19775390625	-251.2281646728516	55.38290786743165	-1187.775756835938	-258.8674621582032	58.0030975341797	-1236.67333984375	-320.6241760253907	35.76024627685548	-1274.6640625	-356.1303405761719	733.5326538085939	-673.9399414062501	-326.9207763671876	675.2213745117189	-661.8588867187501	-294.2263793945313	672.7551269531251	-660.6506347656251	-361.2455749511719	600.3215942382814	-678.5780029296876	-383.7279663085938	507.0198669433595	-675.8917846679689	-301.5802307128907	488.6675415039064	-785.4189453125002	-338.8247985839844	398.0783691406251	-650.4257202148439	-420.4553222656251	332.8365783691407	-629.1184692382814	-374.9082336425782	323.0450134277344	-623.0281982421876	-357.1451416015626	269.3919372558594	-633.5032958984376	-425.5183105468751	92.41448211669923	-603.1719360351564	-365.2485046386719	101.0035171508789	-676.5935058593751	-468.4318847656251	48.6500587463379	-671.2823486328126	-248.1449279785157	52.7883644104004	-616.5426635742189	-261.1813049316407	55.79192352294923	-570.7640380859376	-320.0698547363282	33.15276336669923	-536.3042602539064	
4	0.015	-246.6853485107422	1755.488891601563	-894.7549438476565	-385.7828979492189	1658.880737304688	-966.7075195312502	-404.7413635253907	1654.410278320313	-827.8450927734377	-408.7723388671876	1518.013305664063	-880.5137939453127	-442.3364257812501	1177.694580078125	-883.288513183594	-268.1070556640626	1454.189331054688	-889.0383300781252	-337.0675964355469	1515.410400390625	-1043.08642578125	-451.6568298339845	1405.673583984375	-1206.109130859375	-414.5016479492189	1373.95166015625	-1222.813842773438	-463.3978881835939	1356.893432617188	-1255.079833984375	-457.6744384765626	1293.758178710938	-1282.445678710938	-525.8372192382814	1269.494262695313	-1229.253540039063	-395.5365600585939	1093.101440429688	-1123.702880859375	-354.3960571289063	1055.860717773438	-1178.830810546875	-335.6110534667969	1098.54931640625	-1088.730224609375	-315.4886169433594	1516.844848632813	-726.0913696289064	-411.6554565429689	1400.368774414063	-550.5374755859376	-383.5978088378907	1361.305908203125	-539.7197265625001	-433.2671813964845	1348.986083984375	-507.073699951172	-440.001190185547	1300.018798828125	-485.0247192382814	-507.7555236816407	1285.107788085938	-539.4383544921876	-402.3379516601564	1079.84716796875	-648.7130126953126	-337.6795043945313	1097.208374023438	-671.3722534179689	-359.1786193847657	1054.990478515625	-584.5205078125001	-234.6916656494141	1023.763793945313	-1015.852722167969	-227.3059234619141	1025.73828125	-755.6454467773439	-427.819549560547	1087.389770507813	-879.6737060546877	-428.1729736328126	1053.201538085938	-906.2623291015627	-425.1756286621095	1052.909545898438	-851.2061157226565	-361.7062072753907	803.7979736328127	-1109.114624023438	-337.1227722167969	724.2249145507814	-1130.609497070313	-290.6457824707032	725.9071655273439	-1137.308471679688	-366.2661132812501	671.3356323242189	-1116.853393554688	-372.5626220703126	514.8350830078126	-1124.513549804688	-300.2607116699219	480.1734619140626	-1014.603637695313	-327.5126953125001	346.6145935058594	-1135.12744140625	-396.320037841797	313.8984069824219	-1180.63525390625	-352.8415527343751	306.5799560546876	-1172.02587890625	-348.7419433593751	223.2597656250001	-1158.109619140625	-420.7601013183595	90.00862884521486	-1208.851928710938	-362.0068664550782	99.45780181884768	-1130.3486328125	-467.8904113769532	51.85416793823244	-1140.22314453125	-251.1393585205079	55.38161849975587	-1187.75634765625	-258.8258056640626	57.99690246582033	-1236.672973632813	-320.6000061035157	35.74901580810548	-1274.676025390625	-355.9936523437501	733.5652465820314	-673.9117431640626	-326.8759765625001	675.1832275390626	-661.8572387695314	-294.2112426757813	672.7065429687501	-660.6710205078126	-361.2449340820313	600.3397827148439	-678.5783691406251	-383.9473571777344	507.1060485839845	-675.8876342773439	-301.7372436523438	488.6122131347657	-785.4392700195315	-338.9913635253907	398.0655517578126	-650.4464721679689	-420.6476440429689	332.9304809570313	-629.0867309570314	-375.0078125000001	323.0742187500001	-623.0367431640626	-357.2047119140626	269.4111328125001	-633.5014038085939	-425.5377807617189	92.4225540161133	-603.1033325195314	-365.2488403320313	101.0035781860352	-676.5936279296876	-468.4050598144532	48.65567779541017	-671.2719726562501	-248.1128082275391	52.77775955200197	-616.4874877929689	-261.2324523925782	55.7406463623047	-570.7397460937501	-320.0720214843751	33.14038467407227	-536.3031616210939	
